<?xml version="1.0" standalone="no"?><!DOCTYPE svg PUBLIC "-//W3C//DTD SVG 1.1//EN" "http://www.w3.org/Graphics/SVG/1.1/DTD/svg11.dtd"><svg t="1725287113189" class="icon" viewBox="0 0 1024 1024" version="1.1" xmlns="http://www.w3.org/2000/svg" p-id="5156" xmlns:xlink="http://www.w3.org/1999/xlink" width="200" height="200"><path d="M128 85.312c23.552 0 42.688 19.136 42.688 42.688v469.312c0 71.68 0.064 121.024 5.12 158.208 1.536 12.032 3.648 22.08 6.144 30.592a1512.32 1512.32 0 0 1 70.528-238.72c21.056-52.992 46.208-104.32 75.2-143.04 27.52-36.736 66.56-73.088 117.248-73.088 36.608 0 63.552 19.2 82.432 39.168 17.856 18.88 32.64 42.944 44.544 62.4l0.832 1.344c13.312 21.76 23.68 38.336 34.56 50.048 10.368 11.072 16.064 12.16 19.328 12.16 10.88 0 24.128-5.888 41.344-36.032 16.576-28.992 29.888-68.288 45.248-113.728l1.856-5.44c15.232-44.992 32.768-96.064 57.6-135.68C798.208 165.12 836.928 128 896 128a42.688 42.688 0 1 1 0 85.312c-17.088 0-33.024 8.96-51.008 37.632-18.56 29.504-33.152 70.528-49.152 117.632l-2.944 8.704c-14.208 42.24-30.016 88.96-50.88 125.44-22.272 38.912-57.856 79.04-115.392 79.04-36.48 0-63.232-19.52-81.728-39.36-17.28-18.56-31.744-42.112-43.52-61.312l-1.344-2.24c-13.248-21.568-23.68-38.144-34.688-49.792-10.368-11.008-16.448-12.48-20.416-12.48-8.064 0-24.96 6.784-48.896 38.912-22.528 30.08-44.416 73.408-64.256 123.392a1403.2 1403.2 0 0 0-74.24 267.648c3.392 0.64 7.04 1.216 10.944 1.728 37.12 4.992 86.592 5.12 158.208 5.12H896a42.688 42.688 0 1 1 0 85.312H423.616c-67.84 0-123.008 0-166.528-5.888-45.376-6.08-84.416-19.2-115.52-50.368-31.104-31.104-44.288-70.144-50.368-115.584-5.888-43.52-5.888-98.688-5.888-166.4V128c0-23.552 19.136-42.688 42.688-42.688z" fill="#333333" p-id="5157"></path></svg>